<?xml version="1.0" standalone="no"?>
<!DOCTYPE svg PUBLIC "-//W3C//DTD SVG 20010904//EN"
 "http://www.w3.org/TR/2001/REC-SVG-20010904/DTD/svg10.dtd">
<svg version="1.0" xmlns="http://www.w3.org/2000/svg"
 width="225.000000pt" height="224.000000pt" viewBox="0 0 225.000000 224.000000"
 preserveAspectRatio="xMidYMid meet">

<g transform="translate(0.000000,224.000000) scale(0.100000,-0.100000)"
fill="#000000" stroke="none">
<path d="M980 2074 c-217 -41 -377 -123 -528 -268 -140 -135 -232 -305 -274
-506 -23 -110 -20 -289 6 -398 70 -285 275 -537 532 -653 184 -84 407 -110
594 -71 270 56 498 214 638 442 334 542 46 1261 -573 1430 -61 17 -114 23
-225 25 -80 2 -156 1 -170 -1z m215 -783 c130 -60 156 -216 52 -308 -83 -73
-190 -64 -265 21 -51 59 -56 155 -10 222 27 40 108 84 152 84 17 0 49 -9 71
-19z m-378 -248 c30 -92 89 -164 165 -205 37 -20 58 -23 143 -23 85 0 106 3
143 23 74 39 126 103 161 195 l11 27 246 0 247 0 -7 -57 c-18 -157 -101 -319
-231 -448 -119 -119 -218 -176 -386 -222 -98 -27 -299 -24 -404 6 -233 66
-429 235 -530 455 -36 77 -65 184 -65 234 l0 32 250 0 c230 0 251 -1 257 -17z"/>
</g>
</svg>
